<svg width="22" height="18" viewBox="0 0 22 18" fill="none" xmlns="http://www.w3.org/2000/svg">
<path d="M8.614 0.641999C9.38733 0.835333 9.89 1.454 10.122 2.498C9.00067 3.11666 7.86 4.04466 6.7 5.282C5.54 6.51933 4.728 7.87267 4.264 9.342H4.438C5.90733 9.342 7.048 9.72866 7.86 10.502C8.71067 11.2367 9.136 12.2033 9.136 13.402C9.136 14.5233 8.71067 15.4707 7.86 16.244C7.048 17.0173 6.062 17.404 4.902 17.404C3.51 17.404 2.408 16.9207 1.596 15.954C0.784 14.9487 0.378 13.75 0.378 12.358C0.378 9.99933 1.132 7.892 2.64 6.036C4.148 4.18 6.13933 2.382 8.614 0.641999ZM20.214 0.641999C20.9873 0.835333 21.49 1.454 21.722 2.498C20.6007 3.11666 19.46 4.04466 18.3 5.282C17.14 6.51933 16.328 7.87267 15.864 9.342H16.038C17.5073 9.342 18.648 9.72866 19.46 10.502C20.3107 11.2367 20.736 12.2033 20.736 13.402C20.736 14.5233 20.3107 15.4707 19.46 16.244C18.648 17.0173 17.662 17.404 16.502 17.404C15.11 17.404 14.008 16.9207 13.196 15.954C12.384 14.9487 11.978 13.75 11.978 12.358C11.978 9.99933 12.732 7.892 14.24 6.036C15.748 4.18 17.7393 2.382 20.214 0.641999Z" fill="#F8C5D7"/>
</svg>
