<svg width="24" height="25" viewBox="0 0 24 25" fill="none" xmlns="http://www.w3.org/2000/svg">
<path opacity="0.1" fill-rule="evenodd" clip-rule="evenodd" d="M0 12.2354C0 5.60793 5.37258 0.235352 12 0.235352C18.6274 0.235352 24 5.60793 24 12.2354C24 18.8628 18.6274 24.2354 12 24.2354C5.37258 24.2354 0 18.8628 0 12.2354Z" fill="white"/>
<path fill-rule="evenodd" clip-rule="evenodd" d="M17.4008 7.27466C17.9516 7.4258 18.3853 7.87111 18.5325 8.43661C18.8 9.46152 18.8 11.6 18.8 11.6C18.8 11.6 18.8 13.7384 18.5325 14.7634C18.3853 15.3289 17.9516 15.7742 17.4008 15.9254C16.4027 16.2 12.4 16.2 12.4 16.2C12.4 16.2 8.39731 16.2 7.39913 15.9254C6.84836 15.7742 6.41462 15.3289 6.26742 14.7634C6 13.7384 6 11.6 6 11.6C6 11.6 6 9.46152 6.26742 8.43661C6.41462 7.87111 6.84836 7.4258 7.39913 7.27466C8.39731 7 12.4 7 12.4 7C12.4 7 16.4027 7 17.4008 7.27466ZM11.2 9.79996V13.8L14.4 11.8L11.2 9.79996Z" fill="white"/>
</svg>
